<svg width="16" height="16" viewBox="0 0 16 16" fill="none" xmlns="http://www.w3.org/2000/svg">
    <path fill-rule="evenodd" clip-rule="evenodd"
          d="M3.46967 6.13632C3.76256 5.84343 4.23744 5.84343 4.53033 6.13632L6.26759 7.87358C6.67236 8.27835 6.94445 8.54962 7.17076 8.74174C7.39038 8.92818 7.51706 8.99564 7.61373 9.02705C7.86478 9.10862 8.13522 9.10862 8.38627 9.02705C8.48294 8.99564 8.60962 8.92818 8.82924 8.74174C9.05555 8.54962 9.32764 8.27835 9.73241 7.87358L11.4697 6.13632C11.7626 5.84343 12.2374 5.84343 12.5303 6.13632C12.8232 6.42922 12.8232 6.90409 12.5303 7.19698L10.7931 8.93424L10.7715 8.95577C10.3939 9.33348 10.0786 9.64874 9.8 9.88525C9.50944 10.1319 9.20979 10.3367 8.8498 10.4536C8.29748 10.6331 7.70252 10.6331 7.1502 10.4536C6.79021 10.3367 6.49056 10.1319 6.2 9.88525C5.9214 9.64874 5.60615 9.33348 5.22845 8.95577L5.20693 8.93424L3.46967 7.19698C3.17678 6.90409 3.17678 6.42922 3.46967 6.13632Z"
          fill="#2C2C2C" fill-opacity="0.6"/>
</svg>
