<svg width="24" height="24" viewBox="0 0 24 24" fill="none" xmlns="http://www.w3.org/2000/svg">
    <path fill-rule="evenodd" clip-rule="evenodd"
          d="M11.5661 1.25H11.6H12.4H12.4339H12.434C14.0854 1.25 15.3708 1.24999 16.4019 1.33424C17.4488 1.41977 18.2994 1.59588 19.0644 1.98571C20.3345 2.63285 21.3671 3.66547 22.0143 4.93556C22.4041 5.70065 22.5802 6.55124 22.6658 7.59814C22.75 8.62918 22.75 9.91451 22.75 11.5658V11.5659V11.5659V11.566V11.566V11.6V15.1716V15.1952V15.1952V15.1953V15.1953V15.1953C22.75 15.5101 22.75 15.6976 22.7401 15.8805C22.6567 17.4161 22.0515 18.8772 21.0246 20.022C20.9023 20.1584 20.7696 20.291 20.547 20.5137L20.5303 20.5303L20.5137 20.547C20.291 20.7696 20.1584 20.9023 20.022 21.0246C18.8772 22.0515 17.4161 22.6567 15.8805 22.7401C15.6976 22.75 15.5101 22.75 15.1953 22.75H15.1953H15.1953H15.1952H15.1952H15.1716H11.6H11.566H11.566H11.5659H11.5659H11.5658C9.91451 22.75 8.62918 22.75 7.59814 22.6658C6.55124 22.5802 5.70065 22.4041 4.93556 22.0143C3.66547 21.3671 2.63285 20.3345 1.98571 19.0644C1.59588 18.2994 1.41977 17.4488 1.33424 16.4019C1.24999 15.3708 1.25 14.0854 1.25 12.434V12.4339V12.4V11.6V11.5661V11.566C1.25 9.91462 1.24999 8.62922 1.33424 7.59814C1.41977 6.55124 1.59588 5.70065 1.98571 4.93556C2.63285 3.66547 3.66547 2.63285 4.93556 1.98571C5.70065 1.59588 6.55124 1.41977 7.59814 1.33424C8.62922 1.24999 9.91462 1.25 11.566 1.25H11.5661ZM7.72029 2.82925C6.76615 2.90721 6.13493 3.05809 5.61655 3.32222C4.6287 3.82555 3.82555 4.6287 3.32222 5.61655C3.05809 6.13493 2.90721 6.76615 2.82925 7.72029C2.75058 8.68317 2.75 9.90747 2.75 11.6V12.4C2.75 14.0925 2.75058 15.3168 2.82925 16.2797C2.90721 17.2338 3.05809 17.8651 3.32222 18.3834C3.82555 19.3713 4.6287 20.1744 5.61655 20.6778C6.13493 20.9419 6.76615 21.0928 7.72029 21.1707C8.68317 21.2494 9.90747 21.25 11.6 21.25H15.1716L15.25 21.25V19.2V19.1695C15.25 18.6354 15.25 18.1895 15.2797 17.8253C15.3108 17.4454 15.3779 17.0888 15.5497 16.7515C15.8134 16.2341 16.2341 15.8134 16.7515 15.5497C17.0888 15.3779 17.4454 15.3107 17.8253 15.2797C18.1896 15.25 18.6354 15.25 19.1695 15.25H19.1696H19.2H21.25L21.25 15.1716V11.6C21.25 9.90747 21.2494 8.68317 21.1707 7.72029C21.0928 6.76615 20.9419 6.13493 20.6778 5.61655C20.1744 4.6287 19.3713 3.82555 18.3834 3.32222C17.8651 3.05809 17.2338 2.90721 16.2797 2.82925C15.3168 2.75058 14.0925 2.75 12.4 2.75H11.6C9.90747 2.75 8.68317 2.75058 7.72029 2.82925ZM19.0204 19.908C18.3703 20.4912 17.5891 20.8995 16.75 21.1026V19.2C16.75 18.6275 16.7506 18.2433 16.7748 17.9474C16.7982 17.6603 16.8401 17.523 16.8862 17.4325C17.0061 17.1973 17.1973 17.0061 17.4325 16.8862C17.5231 16.8401 17.6604 16.7982 17.9475 16.7747C18.2434 16.7506 18.6276 16.75 19.2 16.75H21.1026C20.8995 17.5891 20.4912 18.3703 19.908 19.0204C19.8161 19.1228 19.7139 19.2255 19.4697 19.4697C19.2255 19.7139 19.1228 19.8161 19.0204 19.908ZM7 6.25C6.58579 6.25 6.25 6.58579 6.25 7C6.25 7.41421 6.58579 7.75 7 7.75H15C15.4142 7.75 15.75 7.41421 15.75 7C15.75 6.58579 15.4142 6.25 15 6.25H7ZM6.25 11C6.25 10.5858 6.58579 10.25 7 10.25H13C13.4142 10.25 13.75 10.5858 13.75 11C13.75 11.4142 13.4142 11.75 13 11.75H7C6.58579 11.75 6.25 11.4142 6.25 11ZM7 14.25C6.58579 14.25 6.25 14.5858 6.25 15C6.25 15.4142 6.58579 15.75 7 15.75H9C9.41421 15.75 9.75 15.4142 9.75 15C9.75 14.5858 9.41421 14.25 9 14.25H7Z"
          fill="#2C2C2C"/>
</svg>
